<svg width="16" height="16" viewBox="0 0 16 16" fill="none" xmlns="http://www.w3.org/2000/svg">
<path d="M8.49999 4.66666C8.49999 4.39051 8.27613 4.16666 7.99999 4.16666C7.72385 4.16666 7.49999 4.39051 7.49999 4.66666V7.99999C7.49999 8.17239 7.5888 8.33262 7.73499 8.42399L9.73499 9.67399C9.96916 9.82034 10.2776 9.74916 10.424 9.51499C10.5703 9.28082 10.4992 8.97235 10.265 8.82599L8.49999 7.72287V4.66666Z" fill="url(#paint0_linear_41_320)"/>
<path fill-rule="evenodd" clip-rule="evenodd" d="M7.99999 2.16666C4.77833 2.16666 2.16666 4.77833 2.16666 7.99999C2.16666 11.2217 4.77833 13.8333 7.99999 13.8333C11.2217 13.8333 13.8333 11.2217 13.8333 7.99999C13.8333 4.77833 11.2217 2.16666 7.99999 2.16666ZM3.16666 7.99999C3.16666 5.33061 5.33061 3.16666 7.99999 3.16666C10.6694 3.16666 12.8333 5.33061 12.8333 7.99999C12.8333 10.6694 10.6694 12.8333 7.99999 12.8333C5.33061 12.8333 3.16666 10.6694 3.16666 7.99999Z" fill="url(#paint1_linear_41_320)"/>
<defs>
<linearGradient id="paint0_linear_41_320" x1="1.86878" y1="11.6944" x2="15.6596" y2="10.9267" gradientUnits="userSpaceOnUse">
<stop stop-color="#EA4C14"/>
<stop offset="1" stop-color="#EA7B14"/>
</linearGradient>
<linearGradient id="paint1_linear_41_320" x1="1.86878" y1="11.6944" x2="15.6596" y2="10.9267" gradientUnits="userSpaceOnUse">
<stop stop-color="#EA4C14"/>
<stop offset="1" stop-color="#EA7B14"/>
</linearGradient>
</defs>
</svg>
