<svg width="17" height="17" viewBox="0 0 17 17" fill="none" xmlns="http://www.w3.org/2000/svg">
<path d="M11.9168 1.66666H5.08348C3.1965 1.66666 1.66681 3.19635 1.66681 5.08332V11.9167C1.66681 13.8036 3.1965 15.3333 5.08348 15.3333H11.9168C13.8038 15.3333 15.3335 13.8036 15.3335 11.9167V5.08332C15.3335 3.19635 13.8038 1.66666 11.9168 1.66666Z" stroke="url(#paint0_linear_41_481)" stroke-width="1.36667" stroke-linecap="round" stroke-linejoin="round"/>
<path d="M11.2331 8.06937C11.3175 8.63807 11.2203 9.21888 10.9555 9.7292C10.6907 10.2395 10.2718 10.6533 9.75824 10.9118C9.2447 11.1703 8.66273 11.2603 8.09511 11.1689C7.52749 11.0776 7.00313 10.8096 6.5966 10.4031C6.19007 9.99653 5.92208 9.47217 5.83074 8.90455C5.7394 8.33693 5.82937 7.75496 6.08785 7.24143C6.34633 6.72789 6.76015 6.30893 7.27046 6.04414C7.78078 5.77934 8.36159 5.68221 8.93029 5.76654C9.51039 5.85256 10.0474 6.12287 10.4621 6.53755C10.8768 6.95222 11.1471 7.48927 11.2331 8.06937Z" stroke="url(#paint1_linear_41_481)" stroke-width="1.36667" stroke-linecap="round" stroke-linejoin="round"/>
<path d="M12.2583 4.74133H12.2648" stroke="url(#paint2_linear_41_481)" stroke-width="1.36667" stroke-linecap="round" stroke-linejoin="round"/>
<defs>
<linearGradient id="paint0_linear_41_481" x1="1.31787" y1="12.8278" x2="17.4728" y2="11.9284" gradientUnits="userSpaceOnUse">
<stop stop-color="#EA4C14"/>
<stop offset="1" stop-color="#EA7B14"/>
</linearGradient>
<linearGradient id="paint1_linear_41_481" x1="5.65645" y1="10.2014" x2="12.1184" y2="9.84167" gradientUnits="userSpaceOnUse">
<stop stop-color="#EA4C14"/>
<stop offset="1" stop-color="#EA7B14"/>
</linearGradient>
<linearGradient id="paint2_linear_41_481" x1="12.2581" y1="5.558" x2="12.2658" y2="5.558" gradientUnits="userSpaceOnUse">
<stop stop-color="#EA4C14"/>
<stop offset="1" stop-color="#EA7B14"/>
</linearGradient>
</defs>
</svg>
