<svg width="16" height="16" viewBox="0 0 16 16" fill="none" xmlns="http://www.w3.org/2000/svg">
<path fill-rule="evenodd" clip-rule="evenodd" d="M1.86913 5.56887C1.68237 7.30414 1.69069 9.30546 1.95057 11.0337C2.09437 11.9899 2.87482 12.723 3.8382 12.8068L4.84502 12.8943C6.94438 13.0768 9.05563 13.0768 11.155 12.8943L12.1618 12.8068C13.1252 12.723 13.9056 11.9899 14.0494 11.0337C14.3093 9.30545 14.3177 7.30425 14.1309 5.56898C14.1067 5.3678 14.0796 5.1669 14.0494 4.96633C13.9056 4.01007 13.1252 3.27698 12.1618 3.19323L11.155 3.10571C9.05562 2.92322 6.94438 2.92322 4.84502 3.10571L3.8382 3.19323C2.87482 3.27698 2.09437 4.01007 1.95057 4.96633C1.92042 5.16687 1.89327 5.36773 1.86913 5.56887ZM4.93162 4.10195C6.97336 3.92447 9.02665 3.92447 11.0684 4.10195L12.0752 4.18948C12.5781 4.23319 12.9855 4.61587 13.0606 5.11504C13.0683 5.16688 13.0759 5.21874 13.0833 5.27062L9.37597 7.33026C8.52024 7.80566 7.47972 7.80566 6.62399 7.33025L2.9167 5.27065C2.92407 5.21876 2.93166 5.16689 2.93946 5.11504C3.01452 4.61587 3.42191 4.23319 3.9248 4.18948L4.93162 4.10195ZM13.2057 6.3466C13.335 7.85844 13.2866 9.38167 13.0606 10.885C12.9855 11.3841 12.5781 11.7668 12.0752 11.8105L11.0684 11.8981C9.02665 12.0755 6.97336 12.0755 4.93162 11.8981L3.9248 11.8105C3.42191 11.7668 3.01452 11.3841 2.93946 10.885C2.7134 9.38168 2.66502 7.85845 2.79433 6.34663L6.13835 8.20441C7.2961 8.84761 8.70386 8.84761 9.86161 8.20441L13.2057 6.3466Z" fill="url(#paint0_linear_41_322)"/>
<defs>
<linearGradient id="paint0_linear_41_322" x1="1.42104" y1="11.1864" x2="16.194" y2="10.1632" gradientUnits="userSpaceOnUse">
<stop stop-color="#EA4C14"/>
<stop offset="1" stop-color="#EA7B14"/>
</linearGradient>
</defs>
</svg>
