<svg width="16" height="16" viewBox="0 0 16 16" fill="none" xmlns="http://www.w3.org/2000/svg">
<path fill-rule="evenodd" clip-rule="evenodd" d="M3.89353 6.57091C5.08507 9.16551 7.20539 11.2283 9.84123 12.346L9.84956 12.3495L10.3588 12.5765C11.0072 12.8654 11.7693 12.6602 12.1851 12.0848L13.0347 10.909C13.0865 10.8372 13.0732 10.7373 13.0042 10.6817L11.5211 9.48515C11.4473 9.42567 11.3389 9.43952 11.2825 9.51563L10.7053 10.2946C10.5651 10.4837 10.3119 10.5495 10.0974 10.4524C8.12645 9.56042 6.54265 7.97662 5.65069 6.00568C5.55362 5.79117 5.61935 5.53801 5.80852 5.39782L6.58744 4.82058C6.66355 4.76417 6.6774 4.65576 6.61792 4.58203L5.42122 3.09866C5.36561 3.02972 5.26577 3.01633 5.19395 3.06818L4.01176 3.92162C3.43257 4.33974 3.22859 5.1083 3.52423 5.75861L3.89313 6.57005C3.89326 6.57034 3.89339 6.57062 3.89353 6.57091ZM9.44663 13.2649C6.58261 12.0492 4.27904 9.80714 2.98434 6.98731L2.98356 6.98561L2.61389 6.17247C2.12116 5.08863 2.46111 3.80769 3.42643 3.11082L4.60863 2.25738C5.11138 1.89444 5.81019 1.98818 6.19953 2.47077L7.39622 3.95413C7.81259 4.47025 7.71561 5.22918 7.18284 5.62401L6.7365 5.95477C7.49045 7.4177 8.68537 8.61262 10.1483 9.36657L10.4791 8.92023C10.8739 8.38745 11.6328 8.29048 12.1489 8.70685L13.6321 9.90338C14.1148 10.2928 14.2085 10.9919 13.8452 11.4947L12.9956 12.6705C12.3027 13.6295 11.0325 13.9714 9.95179 13.4899L9.44663 13.2649Z" fill="url(#paint0_linear_41_321)"/>
<defs>
<linearGradient id="paint0_linear_41_321" x1="2.0914" y1="11.5671" x2="15.894" y2="10.7982" gradientUnits="userSpaceOnUse">
<stop stop-color="#EA4C14"/>
<stop offset="1" stop-color="#EA7B14"/>
</linearGradient>
</defs>
</svg>
