<svg width="17" height="14" viewBox="0 0 17 14" fill="none" xmlns="http://www.w3.org/2000/svg">
<path d="M16.3333 1.0402C15.679 1.50177 14.9544 1.8548 14.1877 2.0857C13.7761 1.6125 13.2292 1.2771 12.6208 1.12488C12.0124 0.972656 11.372 1.01095 10.7861 1.23457C10.2002 1.4582 9.69709 1.85637 9.34486 2.37524C8.99263 2.8941 8.80825 3.50863 8.81665 4.1357V4.81903C7.61579 4.85017 6.42586 4.58384 5.35284 4.04375C4.27983 3.50367 3.35704 2.7066 2.66665 1.72353C2.66665 1.72353 -0.0666789 7.87353 6.08332 10.6069C4.67602 11.5621 2.99954 12.0411 1.29999 11.9735C7.44999 15.3902 14.9667 11.9735 14.9667 4.1152C14.966 3.92486 14.9477 3.73499 14.912 3.54803C15.6094 2.86025 16.1016 1.99188 16.3333 1.0402V1.0402Z" stroke="url(#paint0_linear_41_475)" stroke-width="1.36667" stroke-linecap="round" stroke-linejoin="round"/>
<defs>
<linearGradient id="paint0_linear_41_475" x1="0.916158" y1="11.0469" x2="18.659" y2="9.83584" gradientUnits="userSpaceOnUse">
<stop stop-color="#EA4C14"/>
<stop offset="1" stop-color="#EA7B14"/>
</linearGradient>
</defs>
</svg>
