<svg width="46" height="47" viewBox="0 0 46 47" fill="none" xmlns="http://www.w3.org/2000/svg">
<path fill-rule="evenodd" clip-rule="evenodd" d="M45.5583 2.92181C45.5583 1.7133 44.5726 0.733398 43.3562 0.733398H2.20232C0.985893 0.733398 0.000167556 1.7133 0.000167556 2.92181V44.745C0.000167556 45.9535 0.985893 46.9334 2.20232 46.9334H43.3562C44.5726 46.9334 45.5583 45.9535 45.5583 44.745V2.92181ZM44.0902 2.92181V44.745C44.0902 45.1475 43.7619 45.4745 43.3562 45.4745H2.20232C1.79663 45.4745 1.46827 45.1475 1.46827 44.745V2.92181C1.46827 2.5193 1.79663 2.19234 2.20232 2.19234H43.3562C43.7619 2.19234 44.0902 2.5193 44.0902 2.92181Z" fill="url(#paint0_linear_39_154)"/>
<path fill-rule="evenodd" clip-rule="evenodd" d="M22.1559 33.824H32.7909C33.1959 33.824 33.5249 33.497 33.5249 33.0945C33.5249 32.6923 33.1959 32.365 32.7909 32.365H22.1559C21.7509 32.365 21.4219 32.6923 21.4219 33.0945C21.4219 33.497 21.7509 33.824 22.1559 33.824Z" fill="url(#paint1_linear_39_154)"/>
<path fill-rule="evenodd" clip-rule="evenodd" d="M22.1559 40.4692H34.8294C35.2345 40.4692 35.5635 40.1423 35.5635 39.7397C35.5635 39.3372 35.2345 39.0103 34.8294 39.0103H22.1559C21.7509 39.0103 21.4219 39.3372 21.4219 39.7397C21.4219 40.1423 21.7509 40.4692 22.1559 40.4692Z" fill="url(#paint2_linear_39_154)"/>
<path fill-rule="evenodd" clip-rule="evenodd" d="M22.1559 37.2204H38.9544C39.3594 37.2204 39.6884 36.8934 39.6884 36.4909C39.6884 36.0884 39.3594 35.7614 38.9544 35.7614H22.1559C21.7509 35.7614 21.4219 36.0884 21.4219 36.4909C21.4219 36.8934 21.7509 37.2204 22.1559 37.2204Z" fill="url(#paint3_linear_39_154)"/>
<path fill-rule="evenodd" clip-rule="evenodd" d="M39.0651 13.3988C39.0651 12.4587 38.2983 11.6966 37.3522 11.6966H23.7576C22.8115 11.6966 22.0447 12.4586 22.0447 13.3988V26.9086C22.0447 27.8487 22.8115 28.6108 23.7576 28.6108H37.3522C38.2983 28.6108 39.0651 27.8488 39.0651 26.9086V13.3988ZM37.597 13.3988V26.9086C37.597 27.0428 37.4872 27.1519 37.3522 27.1519H23.7576C23.6226 27.1519 23.5128 27.0428 23.5128 26.9086V13.3988C23.5128 13.2646 23.6226 13.1556 23.7576 13.1556H37.3522C37.4872 13.1556 37.597 13.2646 37.597 13.3988Z" fill="url(#paint4_linear_39_154)"/>
<path fill-rule="evenodd" clip-rule="evenodd" d="M23.5846 28.1116L38.5634 13.2262C38.8502 12.9416 38.8502 12.4792 38.5634 12.1949C38.277 11.91 37.8117 11.91 37.5256 12.1949L22.5468 27.0802C22.2604 27.3649 22.2604 27.8266 22.5468 28.1116C22.8335 28.3962 23.2985 28.3962 23.5846 28.1116Z" fill="url(#paint5_linear_39_154)"/>
<path fill-rule="evenodd" clip-rule="evenodd" d="M38.5634 27.0803L23.5846 12.195C23.2982 11.91 22.8335 11.91 22.5468 12.195C22.2604 12.4796 22.2604 12.942 22.5468 13.2263L37.5256 28.1117C37.812 28.3963 38.2774 28.3963 38.5634 28.1117C38.8502 27.8267 38.8502 27.3646 38.5634 27.0803Z" fill="url(#paint6_linear_39_154)"/>
<path fill-rule="evenodd" clip-rule="evenodd" d="M18.4085 46.2033V11.1304C18.4085 10.7279 18.0791 10.4009 17.6744 10.4009C17.2694 10.4009 16.9404 10.7279 16.9404 11.1304V46.2033C16.9404 46.6058 17.2694 46.9327 17.6744 46.9327C18.0791 46.9327 18.4085 46.6058 18.4085 46.2033Z" fill="url(#paint7_linear_39_154)"/>
<path fill-rule="evenodd" clip-rule="evenodd" d="M13.2953 13.3988C13.2953 12.4587 12.5285 11.6966 11.5824 11.6966H6.82676C5.88071 11.6966 5.11386 12.4586 5.11386 13.3988V18.1248C5.11386 19.0649 5.88068 19.827 6.82676 19.827H11.5824C12.5284 19.827 13.2953 19.065 13.2953 18.1248V13.3988ZM11.8272 13.3988V18.1248C11.8272 18.259 11.7174 18.368 11.5824 18.368H6.82676C6.69174 18.368 6.58196 18.259 6.58196 18.1248V13.3988C6.58196 13.2646 6.69174 13.1556 6.82676 13.1556H11.5824C11.7174 13.1556 11.8272 13.2646 11.8272 13.3988Z" fill="url(#paint8_linear_39_154)"/>
<path fill-rule="evenodd" clip-rule="evenodd" d="M13.2953 23.7198C13.2953 22.7796 12.5285 22.0176 11.5824 22.0176H6.82676C5.88071 22.0176 5.11386 22.7796 5.11386 23.7198V28.4457C5.11386 29.3859 5.88068 30.1479 6.82676 30.1479H11.5824C12.5284 30.1479 13.2953 29.3859 13.2953 28.4457V23.7198ZM11.8272 23.7198V28.4457C11.8272 28.5799 11.7174 28.689 11.5824 28.689H6.82676C6.69174 28.689 6.58196 28.5799 6.58196 28.4457V23.7198C6.58196 23.5856 6.69174 23.4765 6.82676 23.4765H11.5824C11.7174 23.4765 11.8272 23.5856 11.8272 23.7198Z" fill="url(#paint9_linear_39_154)"/>
<path fill-rule="evenodd" clip-rule="evenodd" d="M13.2953 34.0415C13.2953 33.1014 12.5285 32.3393 11.5824 32.3393H6.82676C5.88071 32.3393 5.11386 33.1014 5.11386 34.0415V38.7675C5.11386 39.7076 5.88068 40.4697 6.82676 40.4697H11.5824C12.5284 40.4697 13.2953 39.7077 13.2953 38.7675V34.0415ZM11.8272 34.0415V38.7675C11.8272 38.9017 11.7174 39.0108 11.5824 39.0108H6.82676C6.69174 39.0108 6.58196 38.9017 6.58196 38.7675V34.0415C6.58196 33.9074 6.69174 33.7983 6.82676 33.7983H11.5824C11.7174 33.7983 11.8272 33.9074 11.8272 34.0415Z" fill="url(#paint10_linear_39_154)"/>
<path fill-rule="evenodd" clip-rule="evenodd" d="M5.85831 9.0962H44.8243C45.2293 9.0962 45.5583 8.76924 45.5583 8.36673C45.5583 7.96422 45.2293 7.63726 44.8243 7.63726H5.85831C5.45328 7.63726 5.12426 7.96422 5.12426 8.36673C5.12426 8.76924 5.45328 9.0962 5.85831 9.0962ZM0.734051 9.0962H3.41304C3.81808 9.0962 4.14709 8.76924 4.14709 8.36673C4.14709 7.96422 3.81808 7.63726 3.41304 7.63726H0.734051C0.329014 7.63726 0 7.96422 0 8.36673C0 8.76924 0.329014 9.0962 0.734051 9.0962Z" fill="url(#paint11_linear_39_154)"/>
<path fill-rule="evenodd" clip-rule="evenodd" d="M37.6817 5.64394H40.8601C41.2652 5.64394 41.5942 5.31697 41.5942 4.91447C41.5942 4.51196 41.2652 4.185 40.8601 4.185H37.6817C37.2767 4.185 36.9477 4.51196 36.9477 4.91447C36.9477 5.31697 37.2767 5.64394 37.6817 5.64394Z" fill="url(#paint12_linear_39_154)"/>
<path fill-rule="evenodd" clip-rule="evenodd" d="M31.3353 5.64394H34.5137C34.9188 5.64394 35.2478 5.31697 35.2478 4.91447C35.2478 4.51196 34.9188 4.185 34.5137 4.185H31.3353C30.9306 4.185 30.6013 4.51196 30.6013 4.91447C30.6013 5.31697 30.9306 5.64394 31.3353 5.64394Z" fill="url(#paint13_linear_39_154)"/>
<path fill-rule="evenodd" clip-rule="evenodd" d="M5.19138 5.64394H7.27356C7.6786 5.64394 8.00762 5.31697 8.00762 4.91447C8.00762 4.51196 7.6786 4.185 7.27356 4.185H5.19138C4.78634 4.185 4.45733 4.51196 4.45733 4.91447C4.45733 5.31697 4.78634 5.64394 5.19138 5.64394Z" fill="url(#paint14_linear_39_154)"/>
<defs>
<linearGradient id="paint0_linear_39_154" x1="-1.16319" y1="38.4634" x2="52.6944" y2="35.5067" gradientUnits="userSpaceOnUse">
<stop stop-color="#EA4C14"/>
<stop offset="1" stop-color="#EA7B14"/>
</linearGradient>
<linearGradient id="paint1_linear_39_154" x1="-1.16319" y1="38.4634" x2="52.6944" y2="35.5067" gradientUnits="userSpaceOnUse">
<stop stop-color="#EA4C14"/>
<stop offset="1" stop-color="#EA7B14"/>
</linearGradient>
<linearGradient id="paint2_linear_39_154" x1="-1.16319" y1="38.4634" x2="52.6944" y2="35.5067" gradientUnits="userSpaceOnUse">
<stop stop-color="#EA4C14"/>
<stop offset="1" stop-color="#EA7B14"/>
</linearGradient>
<linearGradient id="paint3_linear_39_154" x1="-1.16319" y1="38.4634" x2="52.6944" y2="35.5067" gradientUnits="userSpaceOnUse">
<stop stop-color="#EA4C14"/>
<stop offset="1" stop-color="#EA7B14"/>
</linearGradient>
<linearGradient id="paint4_linear_39_154" x1="-1.16319" y1="38.4634" x2="52.6944" y2="35.5067" gradientUnits="userSpaceOnUse">
<stop stop-color="#EA4C14"/>
<stop offset="1" stop-color="#EA7B14"/>
</linearGradient>
<linearGradient id="paint5_linear_39_154" x1="-1.16319" y1="38.4634" x2="52.6944" y2="35.5067" gradientUnits="userSpaceOnUse">
<stop stop-color="#EA4C14"/>
<stop offset="1" stop-color="#EA7B14"/>
</linearGradient>
<linearGradient id="paint6_linear_39_154" x1="-1.16319" y1="38.4634" x2="52.6944" y2="35.5067" gradientUnits="userSpaceOnUse">
<stop stop-color="#EA4C14"/>
<stop offset="1" stop-color="#EA7B14"/>
</linearGradient>
<linearGradient id="paint7_linear_39_154" x1="-1.16319" y1="38.4634" x2="52.6944" y2="35.5067" gradientUnits="userSpaceOnUse">
<stop stop-color="#EA4C14"/>
<stop offset="1" stop-color="#EA7B14"/>
</linearGradient>
<linearGradient id="paint8_linear_39_154" x1="-1.16319" y1="38.4634" x2="52.6944" y2="35.5067" gradientUnits="userSpaceOnUse">
<stop stop-color="#EA4C14"/>
<stop offset="1" stop-color="#EA7B14"/>
</linearGradient>
<linearGradient id="paint9_linear_39_154" x1="-1.16319" y1="38.4634" x2="52.6944" y2="35.5067" gradientUnits="userSpaceOnUse">
<stop stop-color="#EA4C14"/>
<stop offset="1" stop-color="#EA7B14"/>
</linearGradient>
<linearGradient id="paint10_linear_39_154" x1="-1.16319" y1="38.4634" x2="52.6944" y2="35.5067" gradientUnits="userSpaceOnUse">
<stop stop-color="#EA4C14"/>
<stop offset="1" stop-color="#EA7B14"/>
</linearGradient>
<linearGradient id="paint11_linear_39_154" x1="-1.16319" y1="38.4634" x2="52.6944" y2="35.5067" gradientUnits="userSpaceOnUse">
<stop stop-color="#EA4C14"/>
<stop offset="1" stop-color="#EA7B14"/>
</linearGradient>
<linearGradient id="paint12_linear_39_154" x1="-1.16319" y1="38.4634" x2="52.6944" y2="35.5067" gradientUnits="userSpaceOnUse">
<stop stop-color="#EA4C14"/>
<stop offset="1" stop-color="#EA7B14"/>
</linearGradient>
<linearGradient id="paint13_linear_39_154" x1="-1.16319" y1="38.4634" x2="52.6944" y2="35.5067" gradientUnits="userSpaceOnUse">
<stop stop-color="#EA4C14"/>
<stop offset="1" stop-color="#EA7B14"/>
</linearGradient>
<linearGradient id="paint14_linear_39_154" x1="-1.16319" y1="38.4634" x2="52.6944" y2="35.5067" gradientUnits="userSpaceOnUse">
<stop stop-color="#EA4C14"/>
<stop offset="1" stop-color="#EA7B14"/>
</linearGradient>
</defs>
</svg>
