<svg width="43" height="50" viewBox="0 0 43 50" fill="none" xmlns="http://www.w3.org/2000/svg">
<path d="M30.2773 45.1696H26.0102C25.7359 45.1696 25.4819 45.3016 25.3295 45.5353L23.9478 47.6079H8.12876V47.0084L12.091 39.8763C12.1622 39.7544 12.1926 39.6223 12.1926 39.4801V34.6034H10.5671V39.2667L6.60481 46.3988C6.53369 46.5207 6.50321 46.6528 6.50321 46.7951V48.4206C6.50321 48.8676 6.86896 49.2334 7.31598 49.2334H24.3843C24.6586 49.2334 24.9126 49.1013 25.065 48.8676L26.4468 46.7951H30.2769C31.3539 46.7951 32.38 46.3481 33.1115 45.5556L31.9127 44.4584C31.4962 44.9156 30.897 45.1696 30.2773 45.1696Z" fill="url(#paint0_linear_39_156)"/>
<path d="M40.64 40.6988C40.64 41.3694 40.0914 41.918 39.4208 41.918H20.7269C20.0564 41.918 19.5078 41.3694 19.5078 40.6988V28.9131H21.1333C23.8256 28.9131 26.01 26.7287 26.01 24.0364V20.7853C26.01 20.3382 25.6442 19.9725 25.1972 19.9725H16.8256C15.1594 19.9725 13.6862 21.0392 13.158 22.6141L10.5978 30.2847C10.5673 30.3659 10.5571 30.4574 10.5571 30.5386V32.977H12.1827V30.6707L14.7023 23.122C15.0071 22.2076 15.8605 21.5879 16.8256 21.5981H24.3845V24.0364C24.3845 25.8347 22.9316 27.2875 21.1334 27.2875H17.8823V40.6988C17.8823 42.2736 19.1522 43.5436 20.727 43.5436H39.4209C40.9956 43.5436 42.2656 42.2736 42.2656 40.6988V6.969H40.6401L40.64 40.6988Z" fill="url(#paint1_linear_39_156)"/>
<path d="M39.4213 0.466736H20.7274C19.1527 0.466736 17.8827 1.73671 17.8827 3.31146V18.3483H19.5082V3.31146C19.5082 2.64091 20.0569 2.09229 20.7274 2.09229H39.4213C40.0919 2.09229 40.6405 2.64091 40.6405 3.31146V5.34341H42.266V3.31146C42.266 1.73671 40.9961 0.466736 39.4213 0.466736Z" fill="url(#paint2_linear_39_156)"/>
<path d="M35.7633 11.0329H37.3889V12.6584H39.0145V10.2201C39.0145 9.77305 38.6487 9.4073 38.2017 9.4073H35.7633V11.0329Z" fill="url(#paint3_linear_39_156)"/>
<path d="M39.0145 28.1012V25.6629H37.3889V27.2884H35.7633V28.914H38.2017C38.6487 28.914 39.0145 28.5482 39.0145 28.1012Z" fill="url(#paint4_linear_39_156)"/>
<path d="M21.1333 10.2201V12.6584H22.7589V11.0329H24.3844V9.4073H21.9461C21.4991 9.4073 21.1333 9.77305 21.1333 10.2201Z" fill="url(#paint5_linear_39_156)"/>
<path d="M31.6994 12.6584C31.2524 12.6584 30.8867 13.0242 30.8867 13.4712V17.5351C30.8867 17.9821 31.2524 18.3479 31.6994 18.3479H35.7633C36.2104 18.3479 36.5761 17.9821 36.5761 17.5351V13.4712C36.5761 13.0242 36.2104 12.6584 35.7633 12.6584H31.6994ZM34.9506 16.7223H32.5122V14.284H34.9506V16.7223Z" fill="url(#paint6_linear_39_156)"/>
<path d="M23.5717 13.4712V17.5351C23.5717 17.9821 23.9374 18.3479 24.3844 18.3479H28.4483C28.8954 18.3479 29.2611 17.9821 29.2611 17.5351V13.4712C29.2611 13.0242 28.8954 12.6584 28.4483 12.6584H24.3844C23.9374 12.6584 23.5717 13.0242 23.5717 13.4712ZM25.1972 14.284H27.6356V16.7223H25.1972V14.284Z" fill="url(#paint7_linear_39_156)"/>
<path d="M36.5761 24.8501V20.7862C36.5761 20.3392 36.2104 19.9734 35.7633 19.9734H31.6994C31.2524 19.9734 30.8867 20.3392 30.8867 20.7862V24.8501C30.8867 25.2971 31.2524 25.6629 31.6994 25.6629H35.7633C36.2104 25.6629 36.5761 25.2971 36.5761 24.8501ZM34.9506 24.0373H32.5122V21.599H34.9506V24.0373Z" fill="url(#paint8_linear_39_156)"/>
<path d="M29.2611 24.8501V20.7862C29.2611 20.3392 28.8954 19.9734 28.4483 19.9734H27.6356V25.6629H28.4483C28.8954 25.6629 29.2611 25.2971 29.2611 24.8501Z" fill="url(#paint9_linear_39_156)"/>
<path d="M26.01 3.71785H34.1378V5.34341H26.01V3.71785Z" fill="url(#paint10_linear_39_156)"/>
<path d="M22.7589 3.71785H24.3844V5.34341H22.7589V3.71785Z" fill="url(#paint11_linear_39_156)"/>
<path d="M35.7633 3.71785H37.3889V5.34341H35.7633V3.71785Z" fill="url(#paint12_linear_39_156)"/>
<path d="M24.3844 34.6034C24.3844 37.7428 26.9345 40.2929 30.0739 40.2929C33.2133 40.2929 35.7633 37.7428 35.7633 34.6034C35.7633 31.4641 33.2133 28.914 30.0739 28.914C26.9345 28.914 24.3844 31.4641 24.3844 34.6034ZM30.0739 30.5395C32.3192 30.5395 34.1378 32.3581 34.1378 34.6034C34.1378 36.8487 32.3192 38.6673 30.0739 38.6673C27.8286 38.6673 26.01 36.8487 26.01 34.6034C26.01 32.3581 27.8286 30.5395 30.0739 30.5395Z" fill="url(#paint13_linear_39_156)"/>
<path d="M28.6824 36.8077C28.9974 37.1226 29.5155 37.1226 29.8304 36.8077L33.0815 33.5566L31.9335 32.4086L29.2615 35.0806L28.215 34.0341L27.067 35.1821L28.6824 36.8077Z" fill="url(#paint14_linear_39_156)"/>
<path d="M8.12887 22.4118C8.30158 22.4118 8.46414 22.361 8.60637 22.2594L10.2929 21.0301C13.0868 19.0286 14.9866 16.0213 15.6064 12.6381V12.6178L16.2261 8.71645C16.2871 8.3507 16.0941 7.99511 15.7588 7.84272L8.45391 4.58148C8.24055 4.49004 8.00688 4.49004 7.79353 4.58148L0.478518 7.85294C0.143245 8.00533 -0.0497877 8.36093 0.0111753 8.72667L0.620759 12.5873V12.6076C0.742676 13.268 0.915394 13.9182 1.12875 14.5482L2.66291 14.0199C2.46987 13.4713 2.32763 12.9023 2.21588 12.3232L1.70788 9.08218L8.1085 6.22733L14.5091 9.08218L13.991 12.3536C13.4423 15.3203 11.766 17.9517 9.31753 19.7093L8.10849 20.5831L6.81816 19.6281C5.34504 18.5511 4.14612 17.149 3.30287 15.5235L1.86021 16.2652C2.81521 18.1041 4.1868 19.6992 5.85295 20.9285L7.62073 22.2289C7.78328 22.361 7.95615 22.4118 8.12887 22.4118Z" fill="url(#paint15_linear_39_156)"/>
<path d="M7.29565 15.9095C7.50901 15.9095 7.72236 15.8283 7.87476 15.6759L12.7514 10.7992L11.6034 9.65117L7.30581 13.9488L5.44655 12.0895L4.29853 13.2375L6.73687 15.6759C6.8791 15.8283 7.0823 15.9095 7.29565 15.9095Z" fill="url(#paint16_linear_39_156)"/>
<defs>
<linearGradient id="paint0_linear_39_156" x1="-1.07913" y1="40.2928" x2="48.9206" y2="37.8803" gradientUnits="userSpaceOnUse">
<stop stop-color="#EA4C14"/>
<stop offset="1" stop-color="#EA7B14"/>
</linearGradient>
<linearGradient id="paint1_linear_39_156" x1="-1.07913" y1="40.2928" x2="48.9206" y2="37.8803" gradientUnits="userSpaceOnUse">
<stop stop-color="#EA4C14"/>
<stop offset="1" stop-color="#EA7B14"/>
</linearGradient>
<linearGradient id="paint2_linear_39_156" x1="-1.07913" y1="40.2928" x2="48.9206" y2="37.8803" gradientUnits="userSpaceOnUse">
<stop stop-color="#EA4C14"/>
<stop offset="1" stop-color="#EA7B14"/>
</linearGradient>
<linearGradient id="paint3_linear_39_156" x1="-1.07913" y1="40.2928" x2="48.9206" y2="37.8803" gradientUnits="userSpaceOnUse">
<stop stop-color="#EA4C14"/>
<stop offset="1" stop-color="#EA7B14"/>
</linearGradient>
<linearGradient id="paint4_linear_39_156" x1="-1.07913" y1="40.2928" x2="48.9206" y2="37.8803" gradientUnits="userSpaceOnUse">
<stop stop-color="#EA4C14"/>
<stop offset="1" stop-color="#EA7B14"/>
</linearGradient>
<linearGradient id="paint5_linear_39_156" x1="-1.07913" y1="40.2928" x2="48.9206" y2="37.8803" gradientUnits="userSpaceOnUse">
<stop stop-color="#EA4C14"/>
<stop offset="1" stop-color="#EA7B14"/>
</linearGradient>
<linearGradient id="paint6_linear_39_156" x1="-1.07913" y1="40.2928" x2="48.9206" y2="37.8803" gradientUnits="userSpaceOnUse">
<stop stop-color="#EA4C14"/>
<stop offset="1" stop-color="#EA7B14"/>
</linearGradient>
<linearGradient id="paint7_linear_39_156" x1="-1.07913" y1="40.2928" x2="48.9206" y2="37.8803" gradientUnits="userSpaceOnUse">
<stop stop-color="#EA4C14"/>
<stop offset="1" stop-color="#EA7B14"/>
</linearGradient>
<linearGradient id="paint8_linear_39_156" x1="-1.07913" y1="40.2928" x2="48.9206" y2="37.8803" gradientUnits="userSpaceOnUse">
<stop stop-color="#EA4C14"/>
<stop offset="1" stop-color="#EA7B14"/>
</linearGradient>
<linearGradient id="paint9_linear_39_156" x1="-1.07913" y1="40.2928" x2="48.9206" y2="37.8803" gradientUnits="userSpaceOnUse">
<stop stop-color="#EA4C14"/>
<stop offset="1" stop-color="#EA7B14"/>
</linearGradient>
<linearGradient id="paint10_linear_39_156" x1="-1.07913" y1="40.2928" x2="48.9206" y2="37.8803" gradientUnits="userSpaceOnUse">
<stop stop-color="#EA4C14"/>
<stop offset="1" stop-color="#EA7B14"/>
</linearGradient>
<linearGradient id="paint11_linear_39_156" x1="-1.07913" y1="40.2928" x2="48.9206" y2="37.8803" gradientUnits="userSpaceOnUse">
<stop stop-color="#EA4C14"/>
<stop offset="1" stop-color="#EA7B14"/>
</linearGradient>
<linearGradient id="paint12_linear_39_156" x1="-1.07913" y1="40.2928" x2="48.9206" y2="37.8803" gradientUnits="userSpaceOnUse">
<stop stop-color="#EA4C14"/>
<stop offset="1" stop-color="#EA7B14"/>
</linearGradient>
<linearGradient id="paint13_linear_39_156" x1="-1.07913" y1="40.2928" x2="48.9206" y2="37.8803" gradientUnits="userSpaceOnUse">
<stop stop-color="#EA4C14"/>
<stop offset="1" stop-color="#EA7B14"/>
</linearGradient>
<linearGradient id="paint14_linear_39_156" x1="-1.07913" y1="40.2928" x2="48.9206" y2="37.8803" gradientUnits="userSpaceOnUse">
<stop stop-color="#EA4C14"/>
<stop offset="1" stop-color="#EA7B14"/>
</linearGradient>
<linearGradient id="paint15_linear_39_156" x1="-1.07913" y1="40.2928" x2="48.9206" y2="37.8803" gradientUnits="userSpaceOnUse">
<stop stop-color="#EA4C14"/>
<stop offset="1" stop-color="#EA7B14"/>
</linearGradient>
<linearGradient id="paint16_linear_39_156" x1="-1.07913" y1="40.2928" x2="48.9206" y2="37.8803" gradientUnits="userSpaceOnUse">
<stop stop-color="#EA4C14"/>
<stop offset="1" stop-color="#EA7B14"/>
</linearGradient>
</defs>
</svg>
