<svg width="48" height="49" viewBox="0 0 48 49" fill="none" xmlns="http://www.w3.org/2000/svg">
<path d="M0.0666504 39.8607V17.5665C0.0666504 17.1278 0.42238 16.7721 0.861095 16.7721C1.29981 16.7721 1.65554 17.1278 1.65554 17.5665V31.7838H11.7845C12.2232 31.7838 12.5789 32.1392 12.5789 32.5782C12.5789 33.0169 12.2232 33.3727 11.7845 33.3727H1.65554V39.8601C1.65554 42.4144 3.01817 44.775 5.23054 46.0521C7.44291 47.3292 10.1682 47.3292 12.3805 46.0521C14.5929 44.775 15.9555 42.4144 15.9555 39.8601V22.4487H5.8266C5.38788 22.4487 5.03216 22.093 5.03216 21.6543C5.03216 21.2152 5.38788 20.8598 5.8266 20.8598H16.75C16.9607 20.8598 17.1628 20.9435 17.3118 21.0925C17.4607 21.2415 17.5444 21.4436 17.5444 21.6543C17.5444 41.5425 17.593 40.3359 17.4143 41.3627L39.1403 19.6369C39.4378 19.3389 39.6052 18.935 39.6052 18.5137C39.6052 18.0927 39.4378 17.6884 39.1403 17.3904L31.2753 9.5255C30.9774 9.22794 30.573 9.06053 30.1521 9.06053C29.7307 9.06053 29.3268 9.22794 29.0289 9.5255L21.8729 16.6814C21.5625 16.9918 21.0593 16.9918 20.7489 16.6814C20.4382 16.3711 20.4382 15.8679 20.7489 15.5575L27.9049 8.40257H27.9046C28.5008 7.80638 29.3091 7.47157 30.1521 7.47157C30.9948 7.47157 31.8034 7.80637 32.3992 8.40257L40.2631 16.2664C40.8593 16.8623 41.1941 17.6709 41.1941 18.5136C41.1941 19.3566 40.8593 20.1649 40.2631 20.7611L14.9853 46.0397C13.3464 47.6789 11.1237 48.5996 8.80567 48.6C6.48799 48.6 4.2649 47.6789 2.62608 46.04C0.987161 44.4008 0.0665138 42.1778 0.0667862 39.8601L0.0666504 39.8607ZM44.5555 31.1219H33.9626C33.5239 31.1219 33.1682 31.4776 33.1682 31.9163C33.1682 32.3551 33.5239 32.7108 33.9626 32.7108H44.5555C44.9769 32.7108 45.3812 32.8782 45.6791 33.1761C45.977 33.474 46.1444 33.8783 46.1444 34.2997V45.4218C46.1444 45.8432 45.977 46.2475 45.6791 46.5454C45.3812 46.8433 44.9769 47.0107 44.5555 47.0107H18.6448C18.2061 47.0107 17.8504 47.3664 17.8504 47.8051C17.8504 48.2439 18.2061 48.5996 18.6448 48.5996H44.5555C45.3982 48.5996 46.2065 48.2648 46.8027 47.669C47.3985 47.0728 47.7333 46.2645 47.7333 45.4218V34.2997C47.7333 33.457 47.3985 32.6487 46.8027 32.0525C46.2065 31.4567 45.3982 31.1219 44.5555 31.1219ZM0.861095 12.5193H11.7845C12.2232 12.5193 12.5789 12.1636 12.5789 11.7249C12.5789 11.2858 12.2232 10.9304 11.7845 10.9304H1.65554V4.11105C1.65554 3.68971 1.82294 3.28539 2.12086 2.98748C2.41877 2.68957 2.82309 2.52217 3.24443 2.52217H14.3666C14.788 2.52217 15.1923 2.68957 15.4902 2.98748C15.7881 3.28539 15.9555 3.68971 15.9555 4.11105V17.1199C15.9555 17.5586 16.3113 17.9143 16.75 17.9143C17.1887 17.9143 17.5444 17.5586 17.5444 17.1199V4.11105C17.5444 3.26838 17.2096 2.46007 16.6138 1.86392C16.0176 1.26809 15.2093 0.933289 14.3666 0.933289H3.24443C2.40175 0.933289 1.59344 1.26809 0.997285 1.86392C0.401452 2.4601 0.0666504 3.2684 0.0666504 4.11105V11.7249C0.0666504 12.1636 0.42238 12.5193 0.861095 12.5193ZM11.9833 39.8607C11.9833 40.7034 11.6485 41.5117 11.0527 42.1079C10.4565 42.7037 9.64819 43.0385 8.80554 43.0385C7.96288 43.0385 7.15455 42.7037 6.5584 42.1079C5.96256 41.5117 5.62776 40.7034 5.62776 39.8607C5.62776 39.0181 5.96256 38.2098 6.5584 37.6136C7.15458 37.0178 7.96288 36.683 8.80554 36.683C9.64819 36.683 10.4565 37.0178 11.0527 37.6136C11.6485 38.2098 11.9833 39.0181 11.9833 39.8607ZM10.3944 39.8607C10.3944 39.4394 10.227 39.0351 9.92911 38.7372C9.6312 38.4393 9.22688 38.2719 8.80554 38.2719C8.3842 38.2719 7.97988 38.4393 7.68197 38.7372C7.38406 39.0351 7.21665 39.4394 7.21665 39.8607C7.21665 40.2821 7.38406 40.6864 7.68197 40.9843C7.97988 41.2822 8.3842 41.4496 8.80554 41.4496C9.22688 41.4496 9.6312 41.2822 9.92911 40.9843C10.227 40.6864 10.3944 40.2821 10.3944 39.8607Z" fill="url(#paint0_linear_39_152)"/>
<defs>
<linearGradient id="paint0_linear_39_152" x1="-1.15037" y1="39.8611" x2="55.1948" y2="36.7243" gradientUnits="userSpaceOnUse">
<stop stop-color="#EA4C14"/>
<stop offset="1" stop-color="#EA7B14"/>
</linearGradient>
</defs>
</svg>
