<svg width="49" height="49" viewBox="0 0 49 49" fill="none" xmlns="http://www.w3.org/2000/svg">
<path d="M44.2859 3.77198C44.002 2.22589 42.8289 0.994988 41.2981 0.637235C39.7677 0.279473 38.1703 0.862663 37.2304 2.12281H21.812C20.5605 1.01559 18.6633 1.07381 17.4816 2.25547C16.3003 3.43717 16.2421 5.33404 17.349 6.58588V10.0671C17.349 10.9445 18.0602 11.656 18.938 11.656V15.628C18.938 16.0669 19.2934 16.4227 19.7323 16.4227C20.1712 16.4227 20.5266 16.0669 20.5266 15.628V11.656C21.4043 11.656 22.1156 10.9445 22.1156 10.0671V6.58588C22.6246 6.01232 22.9073 5.27284 22.9099 4.50609C22.9066 4.23744 22.8687 3.97044 22.7972 3.71143H36.4953C36.3882 4.23578 36.3882 4.77609 36.4953 5.30042H24.4996C24.0607 5.30042 23.7052 5.65619 23.7052 6.09475C23.7052 6.53364 24.0607 6.88941 24.4996 6.88941H36.6681L29.8606 19.5721C28.7896 20.2607 28.0395 21.3503 27.7785 22.5964C27.5175 23.8426 27.7675 25.1413 28.4721 26.2016V41.0497C26.7169 41.0497 25.2941 42.4724 25.2941 44.2273V46.6106H1.46095C1.0224 46.6106 0.666626 46.9664 0.666626 47.4053C0.666626 47.8438 1.0224 48.1996 1.46095 48.1996H42.7723C43.2109 48.1996 43.5666 47.8438 43.5666 47.4053C43.5666 46.9664 43.2109 46.6106 42.7723 46.6106H39.5943V44.2273C39.5943 42.4724 38.1716 41.0497 36.4167 41.0497V26.2016C36.7838 25.6477 37.0301 25.0223 37.1395 24.3665H43.5667C46.198 24.3639 48.3307 22.2312 48.3333 19.5999V8.47746C48.3306 6.12538 46.6123 4.1268 44.2872 3.77135L44.2859 3.77198ZM19.7327 2.91713C20.6102 2.91713 21.3217 3.62834 21.3217 4.50612C21.3217 5.38361 20.6101 6.09478 19.7327 6.09478C18.8552 6.09478 18.1437 5.38357 18.1437 4.50612C18.1437 3.62838 18.8552 2.91713 19.7327 2.91713ZM18.9383 10.0671V7.57107C19.457 7.72136 20.0083 7.72136 20.527 7.57107V10.0671H18.9383ZM40.3882 2.12281C41.5163 2.11915 42.4926 2.90683 42.7272 4.01074C42.9616 5.1143 42.3901 6.23114 41.3577 6.68669C40.3256 7.14188 39.1153 6.81104 38.4584 5.89402L38.4537 5.88771C37.931 5.1632 37.8592 4.20696 38.2675 3.41263C38.6755 2.61797 39.4948 2.11974 40.3882 2.12281ZM38.0398 7.69245C38.7177 8.20016 39.541 8.4758 40.3882 8.47814C40.4341 8.47814 40.477 8.46617 40.5222 8.46484L35.8011 20.1925C34.9093 19.3043 33.7021 18.806 32.4436 18.8063C32.3159 18.8063 32.1902 18.8156 32.0649 18.8253L38.0398 7.69245ZM32.4436 20.3947C34.1988 20.3947 35.6216 21.8174 35.6216 23.5727C35.6216 25.3276 34.1988 26.7503 32.4436 26.7503C30.6887 26.7503 29.2659 25.3276 29.2659 23.5727C29.2659 21.8174 30.6887 20.3947 32.4436 20.3947ZM38.0049 44.2278V46.6112H26.8824V44.2278C26.8824 43.3504 27.5937 42.6392 28.4714 42.6392H36.4157C37.2932 42.6392 38.0049 43.3504 38.0049 44.2278ZM30.0603 41.0502V27.6943C31.5329 28.5541 33.3546 28.5541 34.8269 27.6943V41.0502H30.0603ZM46.7435 19.6004C46.7435 21.3552 45.3207 22.778 43.5658 22.778H37.1387C37.0828 22.4438 36.9914 22.1163 36.8654 21.8018L42.4743 7.87128C43.3773 7.31236 44.019 6.41533 44.2561 5.37987C45.7084 5.70305 46.7419 6.99048 46.7436 8.47801L46.7435 19.6004Z" fill="url(#paint0_linear_39_157)"/>
<path d="M47.5383 46.611H45.9493C45.5104 46.611 45.155 46.9668 45.155 47.4057C45.155 47.8442 45.5104 48.2 45.9493 48.2H47.5383C47.9769 48.2 48.3326 47.8442 48.3326 47.4057C48.3326 46.9668 47.9769 46.611 47.5383 46.611Z" fill="url(#paint1_linear_39_157)"/>
<path d="M31.6492 24.367H33.2382C33.6768 24.367 34.0326 24.0112 34.0326 23.5727C34.0326 23.1338 33.6768 22.778 33.2382 22.778H31.6492C31.2104 22.778 30.8549 23.1338 30.8549 23.5727C30.8549 24.0112 31.2104 24.367 31.6492 24.367Z" fill="url(#paint2_linear_39_157)"/>
<defs>
<linearGradient id="paint0_linear_39_157" x1="-0.550396" y1="39.4611" x2="55.7948" y2="36.3243" gradientUnits="userSpaceOnUse">
<stop stop-color="#EA4C14"/>
<stop offset="1" stop-color="#EA7B14"/>
</linearGradient>
<linearGradient id="paint1_linear_39_157" x1="-0.550396" y1="39.4611" x2="55.7948" y2="36.3243" gradientUnits="userSpaceOnUse">
<stop stop-color="#EA4C14"/>
<stop offset="1" stop-color="#EA7B14"/>
</linearGradient>
<linearGradient id="paint2_linear_39_157" x1="-0.550396" y1="39.4611" x2="55.7948" y2="36.3243" gradientUnits="userSpaceOnUse">
<stop stop-color="#EA4C14"/>
<stop offset="1" stop-color="#EA7B14"/>
</linearGradient>
</defs>
</svg>
