<svg width="56" height="55" viewBox="0 0 56 55" fill="none" xmlns="http://www.w3.org/2000/svg">
<path d="M54.58 18.045C54.2273 17.7313 53.7638 17.5702 53.2935 17.6083C52.7928 17.6416 52.3128 17.8836 51.9767 18.2744L50.3242 20.1899C50.0735 20.073 49.7964 20.0152 49.5072 20.0354C49.038 20.0726 48.5925 20.3071 48.2849 20.6804L40.5518 30.0919V0.199951H3.53703V48.5074H25.4199L24.549 49.562L23.1833 54.6279L27.9393 52.5772L31.6218 48.5074H40.5505L40.551 38.64L50.6731 27.4532L50.8897 27.6458C51.228 27.9464 51.2341 28.5026 50.9038 28.8869L44.6695 36.1154L45.6191 36.9355L51.8538 29.7065C52.6284 28.8068 52.5711 27.4624 51.7239 26.7097L51.5151 26.5241L53.0158 24.866L53.0171 24.8655C53.3378 24.5093 53.5072 24.0349 53.4805 23.5636C53.4599 23.182 53.3098 22.8346 53.0665 22.558L54.6953 20.6697C55.3736 19.882 55.3213 18.7055 54.58 18.045ZM4.79155 47.2525V1.45449H39.2969V31.5682H39.3384L26.4516 47.2525H4.79155ZM25.0746 52.4369L25.5984 50.4938L26.893 51.6451L25.0746 52.4369ZM39.2969 47.2525H32.7584L39.2973 40.0265L39.2969 47.2525ZM27.8451 50.8124L26.2885 49.4274L47.0185 24.1993L49.7383 26.6189L27.8451 50.8124ZM52.0862 24.0226L50.5786 25.6891L47.8146 23.2292L49.254 21.4774C49.3454 21.3658 49.4728 21.2967 49.6041 21.2862C49.6833 21.2818 49.7879 21.2919 49.882 21.3759L52.0998 23.3495C52.2035 23.441 52.2246 23.5662 52.2285 23.6318C52.2364 23.7701 52.1842 23.9128 52.0862 24.0226ZM53.7465 19.8486L52.1435 21.7076L51.3111 20.9668L52.9273 19.0942C53.0454 18.9563 53.2091 18.8714 53.3763 18.8601C53.4743 18.8544 53.6196 18.8701 53.7456 18.9826C53.9784 19.19 53.9793 19.5782 53.7465 19.8486Z" fill="url(#paint0_linear_39_168)"/>
<path d="M24.65 37.7612L24.5275 37.3232L23.8303 37.717C23.1927 38.0776 22.612 38.7109 22.0493 39.3231C21.3474 40.0872 20.6209 40.8784 19.9356 40.9808C19.7825 41.004 19.6748 41.0097 19.5973 41.0084C19.7019 40.6758 20.0936 40.0697 20.277 39.787C20.61 39.2706 20.7938 38.9866 20.7815 38.6733L20.7413 37.6895L19.866 38.1425C19.5667 38.297 19.2236 38.4895 18.849 38.6991C17.4473 39.4833 15.4243 40.6151 14.0248 40.6238C14.1758 40.0571 14.3346 39.5433 14.5167 39.0747L14.6934 39.7359C16.6369 39.2151 21.0092 37.2703 21.3466 34.8858C21.4512 34.1418 21.0726 33.7865 20.8372 33.6412C19.5034 32.8124 16.3275 34.8193 16.2974 34.8407C13.8931 36.4932 13.1934 38.6952 12.635 40.9962L12.4959 41.5678L13.0582 41.7428C14.6459 42.2364 16.7574 41.268 18.5263 40.3114C18.2974 40.8278 18.2121 41.3302 18.4843 41.7524C18.7573 42.1752 19.2356 42.2671 19.6216 42.2671C19.8325 42.2671 20.0154 42.2395 20.1222 42.2238C21.2451 42.0548 22.1234 41.0991 22.9737 40.1735C23.4079 39.7009 23.8227 39.2501 24.2178 38.9613C25.3552 39.1696 29.545 39.0847 30.8574 37.8555L29.9997 36.94C29.1818 37.7041 25.7226 37.8798 24.65 37.7612ZM17.0079 35.8733C17.7934 35.3346 19.392 34.6825 20.01 34.6825C20.0458 34.6825 20.0769 34.6852 20.1058 34.6895C20.1054 34.6957 20.1045 34.7027 20.1032 34.7097C19.915 36.037 16.9532 37.7074 14.8106 38.3922C15.3051 37.3813 15.9704 36.5862 17.0079 35.8733Z" fill="url(#paint1_linear_39_168)"/>
<path d="M0.399963 5.84596H1.65459V14.0019H0.399963V5.84596Z" fill="url(#paint2_linear_39_168)"/>
<path d="M1.6547 19.0208H0.400075V51.644H14.8296V50.3894H1.65481L1.6547 19.0208Z" fill="url(#paint3_linear_39_168)"/>
<path d="M11.0652 8.98292H33.0232V10.2375H11.0652V8.98292Z" fill="url(#paint4_linear_39_168)"/>
<path d="M11.0652 14.6292H33.0232V15.8839H11.0652V14.6292Z" fill="url(#paint5_linear_39_168)"/>
<path d="M11.0652 20.2756H33.0232V21.5302H11.0652V20.2756Z" fill="url(#paint6_linear_39_168)"/>
<path d="M11.0652 25.9219H33.0232V27.1765H11.0652V25.9219Z" fill="url(#paint7_linear_39_168)"/>
<defs>
<linearGradient id="paint0_linear_39_168" x1="-0.998469" y1="44.6495" x2="63.7431" y2="41.0225" gradientUnits="userSpaceOnUse">
<stop stop-color="#EA4C14"/>
<stop offset="1" stop-color="#EA7B14"/>
</linearGradient>
<linearGradient id="paint1_linear_39_168" x1="-0.998469" y1="44.6495" x2="63.7431" y2="41.0225" gradientUnits="userSpaceOnUse">
<stop stop-color="#EA4C14"/>
<stop offset="1" stop-color="#EA7B14"/>
</linearGradient>
<linearGradient id="paint2_linear_39_168" x1="-0.998469" y1="44.6495" x2="63.7431" y2="41.0225" gradientUnits="userSpaceOnUse">
<stop stop-color="#EA4C14"/>
<stop offset="1" stop-color="#EA7B14"/>
</linearGradient>
<linearGradient id="paint3_linear_39_168" x1="-0.998469" y1="44.6495" x2="63.7431" y2="41.0225" gradientUnits="userSpaceOnUse">
<stop stop-color="#EA4C14"/>
<stop offset="1" stop-color="#EA7B14"/>
</linearGradient>
<linearGradient id="paint4_linear_39_168" x1="-0.998469" y1="44.6495" x2="63.7431" y2="41.0225" gradientUnits="userSpaceOnUse">
<stop stop-color="#EA4C14"/>
<stop offset="1" stop-color="#EA7B14"/>
</linearGradient>
<linearGradient id="paint5_linear_39_168" x1="-0.998469" y1="44.6495" x2="63.7431" y2="41.0225" gradientUnits="userSpaceOnUse">
<stop stop-color="#EA4C14"/>
<stop offset="1" stop-color="#EA7B14"/>
</linearGradient>
<linearGradient id="paint6_linear_39_168" x1="-0.998469" y1="44.6495" x2="63.7431" y2="41.0225" gradientUnits="userSpaceOnUse">
<stop stop-color="#EA4C14"/>
<stop offset="1" stop-color="#EA7B14"/>
</linearGradient>
<linearGradient id="paint7_linear_39_168" x1="-0.998469" y1="44.6495" x2="63.7431" y2="41.0225" gradientUnits="userSpaceOnUse">
<stop stop-color="#EA4C14"/>
<stop offset="1" stop-color="#EA7B14"/>
</linearGradient>
</defs>
</svg>
