<svg width="52" height="54" viewBox="0 0 52 54" fill="none" xmlns="http://www.w3.org/2000/svg">
<path d="M42.3264 30.1408C42.5061 30.1978 42.6563 30.3238 42.7431 30.4917C42.83 30.6592 42.8468 30.8549 42.7896 31.0348C41.2066 36.0391 38.399 39.994 33.9546 43.4813L33.9542 43.4817C33.645 43.6965 33.2219 43.6324 32.9894 43.3359C32.7569 43.0394 32.7951 42.6128 33.0767 42.3628C37.2852 39.0609 39.9404 35.3235 41.4332 30.6081C41.4893 30.4275 41.6155 30.2764 41.7829 30.1887C41.9506 30.1014 42.146 30.0841 42.3265 30.1411L42.3264 30.1408ZM10.1149 13.8052V13.8049C10.1419 13.6152 10.0917 13.4225 9.97529 13.2703C9.85885 13.1182 9.68626 13.0196 9.49606 12.9963C9.30624 12.9731 9.11493 13.0278 8.96554 13.1474C8.81616 13.2673 8.72106 13.4424 8.70197 13.6332C7.97153 19.6357 8.16209 24.9272 9.26767 29.3585C9.36314 29.7405 9.74951 29.9725 10.131 29.8769C10.5122 29.7817 10.7443 29.3949 10.6488 29.0129C9.58512 24.7507 9.4058 19.6324 10.1149 13.8038L10.1149 13.8052ZM51.6723 4.54055C49.7273 6.15041 47.8096 7.83415 45.92 9.59179C46.4094 9.669 46.886 9.74884 47.3469 9.83618C47.6513 9.8939 47.8834 10.142 47.9204 10.4498C49.3982 22.6046 47.8856 32.015 43.293 39.2194C39.3211 45.4468 33.7927 48.9455 28.9163 52.0353C28.1274 52.535 27.3812 53.0073 26.6538 53.4829V53.4833C26.4176 53.6389 26.1117 53.6389 25.8751 53.4833C25.1484 53.0077 24.4023 52.5354 23.6127 52.0357C21.4745 50.6815 19.2704 49.2848 17.0889 47.5989C16.7239 48.3898 16.3794 49.1735 16.0552 49.9498C15.9512 50.1995 15.7145 50.3689 15.4446 50.3865H15.3982C15.1443 50.3865 14.9096 50.2508 14.7823 50.0308L0.695034 25.6032C0.51682 25.2936 0.595442 24.8996 0.878491 24.6822C1.1619 24.4648 1.56213 24.4907 1.81447 24.7433L4.84106 27.7734C3.89983 22.7503 3.8205 16.938 4.61005 10.4495C4.64712 10.1417 4.87924 9.89358 5.18362 9.83586C6.03612 9.67469 6.935 9.53862 7.88712 9.39582C13.3345 8.57644 20.1131 7.55691 25.7027 0.342525C25.8375 0.168604 26.0449 0.0666504 26.2647 0.0666504C26.4848 0.0666504 26.6923 0.168604 26.827 0.342525C31.2819 6.09242 36.5419 7.86234 40.6948 8.72518C43.9547 6.64302 47.3837 4.8401 50.9464 3.33588C51.2717 3.1987 51.6484 3.32164 51.8311 3.6245C52.0134 3.92699 51.9464 4.31794 51.6738 4.54246L51.6723 4.54055ZM6.70477 29.6379L14.0773 37.0191C17.5368 30.2553 22.7423 23.5622 29.1834 17.6081H29.1831C32.2613 14.7583 35.5541 12.1506 39.033 9.8075C34.0169 8.6778 29.5226 5.90025 26.2655 1.91729C23.8829 4.85557 20.8009 7.14691 17.3021 8.5806C14.0625 9.91007 10.8959 10.3861 8.10143 10.8063C7.35414 10.9188 6.64057 11.026 5.96362 11.1444C5.14744 18.2159 5.39791 24.4353 6.70492 29.6381L6.70477 29.6379ZM44.6037 10.8305C33.2519 21.6515 23.3492 34.6641 17.7135 46.2806L17.7131 46.281C19.8547 47.91 22.0778 49.4288 24.374 50.8314C25.0306 51.2449 25.6533 51.6407 26.265 52.035C26.8767 51.6388 27.4994 51.2434 28.156 50.8292C37.7075 44.7832 49.5792 37.2648 46.5697 11.1426C45.9456 11.035 45.2881 10.9331 44.6037 10.83L44.6037 10.8305ZM46.8295 6.83745C33.4687 13.7756 21.0243 26.0153 14.9113 38.5347C14.8098 38.7413 14.6155 38.8863 14.3886 38.9242C14.1621 38.962 13.9311 38.8882 13.7683 38.7255L4.62966 29.5737L15.3048 48.0856C15.5782 47.4671 15.8646 46.8434 16.1637 46.2144C16.1734 46.1908 16.1847 46.1676 16.1963 46.1447C19.4018 39.4266 24.0697 32.1533 29.8436 24.899C34.999 18.4204 40.6798 12.3786 46.8292 6.83714L46.8295 6.83745Z" fill="url(#paint0_linear_39_150)"/>
<defs>
<linearGradient id="paint0_linear_39_150" x1="-0.710663" y1="43.7855" x2="59.9839" y2="40.5455" gradientUnits="userSpaceOnUse">
<stop stop-color="#EA4C14"/>
<stop offset="1" stop-color="#EA7B14"/>
</linearGradient>
</defs>
</svg>
