<svg width="23" height="19" viewBox="0 0 23 19" fill="none" xmlns="http://www.w3.org/2000/svg">
<path d="M7.29762 8.64858C6.73604 8.49353 6.17446 8.41486 5.62819 8.41486C4.78462 8.41486 4.08073 8.59973 3.53493 8.82612C4.06111 6.97876 5.32515 3.7912 7.84318 3.43223C8.07638 3.39897 8.26748 3.23726 8.3311 3.01959L8.88144 1.13187C8.92784 0.972226 8.90033 0.801345 8.80538 0.662805C8.71043 0.524264 8.55783 0.431828 8.38682 0.409349C8.20098 0.385036 8.01156 0.37265 7.82381 0.37265C4.80136 0.37265 1.80809 3.39805 0.545011 7.72995C-0.196429 10.2714 -0.413839 14.0922 1.4125 16.4972C2.43449 17.8429 3.9255 18.5615 5.84416 18.6333C5.85205 18.6336 5.85971 18.6338 5.8676 18.6338C8.23495 18.6338 10.3342 17.1048 10.9728 14.9159C11.3543 13.6074 11.1818 12.235 10.4868 11.0508C9.79915 9.87985 8.66666 9.02636 7.29762 8.64858Z" fill="url(#paint0_linear_39_263)"/>
<path d="M22.1164 11.051C21.4288 9.87985 20.2963 9.02636 18.9273 8.64858C18.3657 8.49353 17.8041 8.41486 17.2581 8.41486C16.4145 8.41486 15.7104 8.59973 15.1646 8.82612C15.6908 6.97876 16.9548 3.7912 19.4731 3.43223C19.7063 3.39897 19.8971 3.23726 19.961 3.01959L20.5113 1.13187C20.5577 0.972226 20.5302 0.801345 20.4353 0.662805C20.3406 0.524264 20.188 0.431828 20.0167 0.409349C19.8311 0.385036 19.6417 0.37265 19.4537 0.37265C16.4313 0.37265 13.438 3.39805 12.1747 7.72995C11.4335 10.2714 11.2161 14.0922 13.0426 16.4977C14.0644 17.8431 15.5556 18.562 17.4741 18.6336C17.482 18.6338 17.4896 18.634 17.4977 18.634C19.8649 18.634 21.9643 17.105 22.6029 14.9161C22.9839 13.6076 22.8112 12.235 22.1164 11.051Z" fill="url(#paint1_linear_39_263)"/>
<defs>
<linearGradient id="paint0_linear_39_263" x1="-0.28522" y1="15.2859" x2="12.9454" y2="14.8353" gradientUnits="userSpaceOnUse">
<stop stop-color="#EA4C14"/>
<stop offset="1" stop-color="#EA7B14"/>
</linearGradient>
<linearGradient id="paint1_linear_39_263" x1="11.3447" y1="15.2861" x2="24.5751" y2="14.8355" gradientUnits="userSpaceOnUse">
<stop stop-color="#EA4C14"/>
<stop offset="1" stop-color="#EA7B14"/>
</linearGradient>
</defs>
</svg>
